M48
;Layer_Color=9474304
;FILE_FORMAT=2:5
INCH,TZ
;TYPE=PLATED
T1F00S00C0.02800
T2F00S00C0.02992
T3F00S00C0.03787
T4F00S00C0.04134
T5F00S00C0.04528
T6F00S00C0.16929
%
T01
X318600Y225500
X350870Y297330
X246000Y257000
X224500Y242500
X246000Y187500
X290000Y355500
T02
X350870Y172000
Y182000
Y192000
Y202000
Y212000
Y222000
Y232000
Y242000
Y252000
Y262000
Y272000
Y282000
X332260Y283000
Y273000
Y263000
Y253000
Y243000
Y293000
Y303000
X382130Y282000
Y272000
Y262000
Y252000
Y242000
Y232000
Y222000
Y212000
Y202000
Y192000
Y182000
Y172000
X420000
Y182000
Y192000
Y202000
Y212000
Y222000
Y232000
Y242000
Y252000
Y262000
Y272000
Y282000
X451260
Y272000
Y262000
Y252000
Y242000
Y232000
Y222000
Y212000
Y202000
Y192000
Y182000
Y172000
X261800Y177233
Y187233
Y197233
Y207233
Y217233
Y227233
Y237233
Y247233
Y257233
Y267233
Y277233
Y287233
X230540
Y277233
Y267233
Y257233
Y247233
Y237233
Y227233
Y217233
Y207233
Y197233
Y187233
Y177233
X176760Y185000
Y195000
Y205000
Y215000
Y225000
Y235000
Y245000
Y255000
Y265000
Y275000
Y285000
Y295000
X301000Y293000
Y303000
Y283000
Y273000
Y263000
Y253000
Y243000
X145500Y245000
Y255000
Y265000
Y275000
Y285000
Y295000
Y235000
Y225000
Y215000
Y205000
Y195000
Y185000
X143870Y326000
Y336000
Y346000
Y356000
Y366000
Y376000
Y386000
Y396000
Y406000
Y416000
Y426000
Y436000
X175130
Y426000
Y416000
Y406000
Y396000
Y386000
Y376000
Y366000
Y356000
Y346000
Y336000
Y326000
X231240Y330500
Y320500
Y340500
Y350500
Y360500
Y370500
Y380500
Y390500
Y400500
Y410500
Y420500
Y430500
X262500
Y420500
Y410500
Y400500
Y390500
Y380500
Y370500
Y360500
Y350500
Y340500
Y330500
Y320500
X301000Y323000
Y333000
Y343000
Y353000
Y313000
X332260
Y323000
Y333000
Y343000
Y353000
X347000Y354000
Y364000
Y374000
Y384000
Y394000
Y404000
Y414000
Y424000
X378260
Y414000
Y404000
Y394000
Y384000
Y374000
Y364000
Y354000
Y344000
Y334000
Y324000
Y314000
X347000
Y324000
Y334000
Y344000
X423240Y348500
Y338500
Y328500
Y318500
X454500
Y328500
Y338500
Y348500
Y358500
Y368500
Y378500
Y388500
Y398500
Y408500
Y418500
Y428500
X423240
Y418500
Y408500
Y398500
Y388500
Y378500
Y368500
Y358500
T03
X122500Y238500
Y248500
T04
X112583Y275179
Y285179
Y295179
Y305179
X122583
Y295179
Y285179
Y275179
Y315179
Y325179
Y335179
Y345179
Y355179
Y365179
Y375179
Y385179
Y395179
Y405179
Y415179
X112583
Y405179
Y395179
Y385179
Y375179
Y365179
Y355179
Y345179
Y335179
Y325179
Y315179
T05
X474500Y225000
Y235000
Y245000
Y255000
Y265000
Y275000
Y285000
Y295000
Y305000
X400000Y301500
Y291500
Y281500
Y271500
Y261500
Y251500
Y241500
Y231500
Y221500
Y311500
X282000Y310500
Y300500
Y290500
Y280500
Y270500
Y260500
Y250500
Y240500
Y230500
Y220500
X208500Y226500
Y236500
Y246500
Y256500
Y266500
Y276500
Y286500
Y296500
Y306500
Y316500
Y326500
Y336500
Y346500
Y356500
Y366500
Y376500
X282000Y370500
Y360500
Y350500
Y340500
Y330500
Y320500
X400000Y321500
Y331500
Y341500
Y351500
Y361500
Y371500
X474500Y375000
Y365000
Y355000
Y345000
Y335000
Y325000
Y315000
T06
X476500Y170000
X120500Y171000
X118432Y443035
X473000Y441000
M30
