G04*
G04 #@! TF.GenerationSoftware,Altium Limited,Altium Designer,23.1.1 (15)*
G04*
G04 Layer_Color=65535*
%FSLAX25Y25*%
%MOIN*%
G70*
G04*
G04 #@! TF.SameCoordinates,AD0B2A01-48E7-494C-B2D7-7D24B3A8B6D3*
G04*
G04*
G04 #@! TF.FilePolarity,Positive*
G04*
G01*
G75*
%ADD10C,0.00394*%
%ADD11C,0.00787*%
%ADD12C,0.01000*%
D10*
X117500Y253500D02*
X127500D01*
X117500Y233500D02*
Y253500D01*
Y233500D02*
X127500D01*
Y253500D01*
D11*
X143216Y303248D02*
X176622D01*
X145638Y176752D02*
X176622D01*
X298716Y361248D02*
X332122D01*
X301138Y234752D02*
X332122D01*
X348587Y290248D02*
X381992D01*
X351008Y163752D02*
X381992D01*
X71047Y421557D02*
X105693D01*
X71047Y268801D02*
Y421557D01*
Y268801D02*
X122583D01*
X474500Y220000D02*
X479402D01*
Y380000D01*
X469599D02*
X479402D01*
X469599Y225000D02*
Y380000D01*
X400000Y216500D02*
X404902D01*
Y376500D01*
X395099D02*
X404902D01*
X395099Y221500D02*
Y376500D01*
X277099Y220500D02*
Y375500D01*
X286902D01*
Y215500D02*
Y375500D01*
X282000Y215500D02*
X286902D01*
X203599Y226500D02*
Y381500D01*
X213402D01*
Y221500D02*
Y381500D01*
X208500Y221500D02*
X213402D01*
X423378Y310252D02*
X454362D01*
X420957Y436748D02*
X454362D01*
X420138Y163752D02*
X451122D01*
X417716Y290248D02*
X451122D01*
X344716Y432248D02*
X378122D01*
X347138Y305752D02*
X378122D01*
X231378Y312252D02*
X262362D01*
X228957Y438748D02*
X262362D01*
X230678Y168985D02*
X261662D01*
X228256Y295481D02*
X261662D01*
X144008Y317752D02*
X174992D01*
X141587Y444248D02*
X174992D01*
D12*
X74999Y431598D02*
X72999D01*
X73999D01*
Y426600D01*
X72999Y425600D01*
X72000D01*
X71000Y426600D01*
X76998Y425600D02*
X78997D01*
X77998D01*
Y431598D01*
X76998Y430598D01*
X106001Y245000D02*
Y243001D01*
Y244001D01*
X110999D01*
X111999Y243001D01*
Y242001D01*
X110999Y241002D01*
X106001Y247000D02*
Y250998D01*
X107001D01*
X110999Y247000D01*
X111999D01*
X473499Y390098D02*
X471499D01*
X472499D01*
Y385100D01*
X471499Y384100D01*
X470500D01*
X469500Y385100D01*
X479497Y390098D02*
X477497Y389098D01*
X475498Y387099D01*
Y385100D01*
X476498Y384100D01*
X478497D01*
X479497Y385100D01*
Y386099D01*
X478497Y387099D01*
X475498D01*
X398999Y386598D02*
X396999D01*
X397999D01*
Y381600D01*
X396999Y380600D01*
X396000D01*
X395000Y381600D01*
X404997Y386598D02*
X400998D01*
Y383599D01*
X402997Y384599D01*
X403997D01*
X404997Y383599D01*
Y381600D01*
X403997Y380600D01*
X401998D01*
X400998Y381600D01*
X280999Y385598D02*
X278999D01*
X279999D01*
Y380600D01*
X278999Y379600D01*
X278000D01*
X277000Y380600D01*
X285997Y379600D02*
Y385598D01*
X282998Y382599D01*
X286997D01*
X207499Y391598D02*
X205499D01*
X206499D01*
Y386600D01*
X205499Y385600D01*
X204500D01*
X203500Y386600D01*
X209498Y390598D02*
X210498Y391598D01*
X212497D01*
X213497Y390598D01*
Y389599D01*
X212497Y388599D01*
X211497D01*
X212497D01*
X213497Y387599D01*
Y386600D01*
X212497Y385600D01*
X210498D01*
X209498Y386600D01*
X420200Y446798D02*
X422199D01*
X421200D01*
Y440800D01*
X420200D01*
X422199D01*
X429197Y445798D02*
X428197Y446798D01*
X426198D01*
X425198Y445798D01*
Y441800D01*
X426198Y440800D01*
X428197D01*
X429197Y441800D01*
X431196D02*
X432196Y440800D01*
X434196D01*
X435195Y441800D01*
Y445798D01*
X434196Y446798D01*
X432196D01*
X431196Y445798D01*
Y444799D01*
X432196Y443799D01*
X435195D01*
X417000Y300298D02*
X418999D01*
X418000D01*
Y294300D01*
X417000D01*
X418999D01*
X425997Y299298D02*
X424997Y300298D01*
X422998D01*
X421998Y299298D01*
Y295300D01*
X422998Y294300D01*
X424997D01*
X425997Y295300D01*
X427996Y299298D02*
X428996Y300298D01*
X430996D01*
X431995Y299298D01*
Y298299D01*
X430996Y297299D01*
X431995Y296299D01*
Y295300D01*
X430996Y294300D01*
X428996D01*
X427996Y295300D01*
Y296299D01*
X428996Y297299D01*
X427996Y298299D01*
Y299298D01*
X428996Y297299D02*
X430996D01*
X344000Y442298D02*
X345999D01*
X345000D01*
Y436300D01*
X344000D01*
X345999D01*
X352997Y441298D02*
X351997Y442298D01*
X349998D01*
X348998Y441298D01*
Y437300D01*
X349998Y436300D01*
X351997D01*
X352997Y437300D01*
X354996Y442298D02*
X358995D01*
Y441298D01*
X354996Y437300D01*
Y436300D01*
X359502Y302999D02*
X361502D01*
X360502D01*
Y297001D01*
X359502D01*
X361502D01*
X368499Y301999D02*
X367500Y302999D01*
X365500D01*
X364501Y301999D01*
Y298001D01*
X365500Y297001D01*
X367500D01*
X368499Y298001D01*
X374498Y302999D02*
X372498Y301999D01*
X370499Y300000D01*
Y298001D01*
X371498Y297001D01*
X373498D01*
X374498Y298001D01*
Y299000D01*
X373498Y300000D01*
X370499D01*
X228200Y448798D02*
X230199D01*
X229200D01*
Y442800D01*
X228200D01*
X230199D01*
X237197Y447798D02*
X236197Y448798D01*
X234198D01*
X233198Y447798D01*
Y443800D01*
X234198Y442800D01*
X236197D01*
X237197Y443800D01*
X243195Y448798D02*
X239196D01*
Y445799D01*
X241196Y446799D01*
X242196D01*
X243195Y445799D01*
Y443800D01*
X242196Y442800D01*
X240196D01*
X239196Y443800D01*
X227500Y305598D02*
X229499D01*
X228500D01*
Y299600D01*
X227500D01*
X229499D01*
X236497Y304598D02*
X235497Y305598D01*
X233498D01*
X232498Y304598D01*
Y300600D01*
X233498Y299600D01*
X235497D01*
X236497Y300600D01*
X241495Y299600D02*
Y305598D01*
X238496Y302599D01*
X242495D01*
X140900Y454298D02*
X142899D01*
X141900D01*
Y448300D01*
X140900D01*
X142899D01*
X149897Y453298D02*
X148897Y454298D01*
X146898D01*
X145898Y453298D01*
Y449300D01*
X146898Y448300D01*
X148897D01*
X149897Y449300D01*
X151896Y453298D02*
X152896Y454298D01*
X154895D01*
X155895Y453298D01*
Y452299D01*
X154895Y451299D01*
X153896D01*
X154895D01*
X155895Y450299D01*
Y449300D01*
X154895Y448300D01*
X152896D01*
X151896Y449300D01*
X172502Y313499D02*
X174502D01*
X173502D01*
Y307501D01*
X172502D01*
X174502D01*
X181500Y312499D02*
X180500Y313499D01*
X178500D01*
X177501Y312499D01*
Y308501D01*
X178500Y307501D01*
X180500D01*
X181500Y308501D01*
X187498Y307501D02*
X183499D01*
X187498Y311500D01*
Y312499D01*
X186498Y313499D01*
X184499D01*
X183499Y312499D01*
X307002Y371999D02*
X309001D01*
X308002D01*
Y366001D01*
X307002D01*
X309001D01*
X315999Y370999D02*
X315000Y371999D01*
X313000D01*
X312000Y370999D01*
Y367001D01*
X313000Y366001D01*
X315000D01*
X315999Y367001D01*
X317999Y366001D02*
X319998D01*
X318998D01*
Y371999D01*
X317999Y370999D01*
M02*
