G04*
G04 #@! TF.GenerationSoftware,Altium Limited,Altium Designer,23.1.1 (15)*
G04*
G04 Layer_Color=8388736*
%FSLAX25Y25*%
%MOIN*%
G70*
G04*
G04 #@! TF.SameCoordinates,AD0B2A01-48E7-494C-B2D7-7D24B3A8B6D3*
G04*
G04*
G04 #@! TF.FilePolarity,Negative*
G04*
G01*
G75*
%ADD13C,0.06690*%
%ADD14R,0.05367X0.05367*%
%ADD15C,0.05367*%
%ADD16C,0.07001*%
%ADD17R,0.07001X0.07001*%
%ADD18R,0.07591X0.07591*%
%ADD19C,0.07591*%
%ADD20C,0.06800*%
%ADD21C,0.05800*%
D13*
X122500Y238500D02*
D03*
Y248500D02*
D03*
D14*
X145500Y295000D02*
D03*
X301000Y353000D02*
D03*
X350870Y282000D02*
D03*
X423240Y428500D02*
D03*
X420000Y282000D02*
D03*
X347000Y424000D02*
D03*
X231240Y430500D02*
D03*
X230540Y287233D02*
D03*
X143870Y436000D02*
D03*
D15*
X145500Y285000D02*
D03*
Y275000D02*
D03*
Y265000D02*
D03*
Y255000D02*
D03*
Y245000D02*
D03*
Y235000D02*
D03*
Y225000D02*
D03*
Y215000D02*
D03*
Y205000D02*
D03*
Y195000D02*
D03*
Y185000D02*
D03*
X176760D02*
D03*
Y195000D02*
D03*
Y205000D02*
D03*
Y215000D02*
D03*
Y225000D02*
D03*
Y235000D02*
D03*
Y245000D02*
D03*
Y255000D02*
D03*
Y265000D02*
D03*
Y275000D02*
D03*
Y285000D02*
D03*
Y295000D02*
D03*
X301000Y343000D02*
D03*
Y333000D02*
D03*
Y323000D02*
D03*
Y313000D02*
D03*
Y303000D02*
D03*
Y293000D02*
D03*
Y283000D02*
D03*
Y273000D02*
D03*
Y263000D02*
D03*
Y253000D02*
D03*
Y243000D02*
D03*
X332260D02*
D03*
Y253000D02*
D03*
Y263000D02*
D03*
Y273000D02*
D03*
Y283000D02*
D03*
Y293000D02*
D03*
Y303000D02*
D03*
Y313000D02*
D03*
Y323000D02*
D03*
Y333000D02*
D03*
Y343000D02*
D03*
Y353000D02*
D03*
X350870Y272000D02*
D03*
Y262000D02*
D03*
Y252000D02*
D03*
Y242000D02*
D03*
Y232000D02*
D03*
Y222000D02*
D03*
Y212000D02*
D03*
Y202000D02*
D03*
Y192000D02*
D03*
Y182000D02*
D03*
Y172000D02*
D03*
X382130D02*
D03*
Y182000D02*
D03*
Y192000D02*
D03*
Y202000D02*
D03*
Y212000D02*
D03*
Y222000D02*
D03*
Y232000D02*
D03*
Y242000D02*
D03*
Y252000D02*
D03*
Y262000D02*
D03*
Y272000D02*
D03*
Y282000D02*
D03*
X454500Y428500D02*
D03*
Y418500D02*
D03*
Y408500D02*
D03*
Y398500D02*
D03*
Y388500D02*
D03*
Y378500D02*
D03*
Y368500D02*
D03*
Y358500D02*
D03*
Y348500D02*
D03*
Y338500D02*
D03*
Y328500D02*
D03*
Y318500D02*
D03*
X423240D02*
D03*
Y328500D02*
D03*
Y338500D02*
D03*
Y348500D02*
D03*
Y358500D02*
D03*
Y368500D02*
D03*
Y378500D02*
D03*
Y388500D02*
D03*
Y398500D02*
D03*
Y408500D02*
D03*
Y418500D02*
D03*
X451260Y282000D02*
D03*
Y272000D02*
D03*
Y262000D02*
D03*
Y252000D02*
D03*
Y242000D02*
D03*
Y232000D02*
D03*
Y222000D02*
D03*
Y212000D02*
D03*
Y202000D02*
D03*
Y192000D02*
D03*
Y182000D02*
D03*
Y172000D02*
D03*
X420000D02*
D03*
Y182000D02*
D03*
Y192000D02*
D03*
Y202000D02*
D03*
Y212000D02*
D03*
Y222000D02*
D03*
Y232000D02*
D03*
Y242000D02*
D03*
Y252000D02*
D03*
Y262000D02*
D03*
Y272000D02*
D03*
X347000Y414000D02*
D03*
Y404000D02*
D03*
Y394000D02*
D03*
Y384000D02*
D03*
Y374000D02*
D03*
Y364000D02*
D03*
Y354000D02*
D03*
Y344000D02*
D03*
Y334000D02*
D03*
Y324000D02*
D03*
Y314000D02*
D03*
X378260D02*
D03*
Y324000D02*
D03*
Y334000D02*
D03*
Y344000D02*
D03*
Y354000D02*
D03*
Y364000D02*
D03*
Y374000D02*
D03*
Y384000D02*
D03*
Y394000D02*
D03*
Y404000D02*
D03*
Y414000D02*
D03*
Y424000D02*
D03*
X262500Y430500D02*
D03*
Y420500D02*
D03*
Y410500D02*
D03*
Y400500D02*
D03*
Y390500D02*
D03*
Y380500D02*
D03*
Y370500D02*
D03*
Y360500D02*
D03*
Y350500D02*
D03*
Y340500D02*
D03*
Y330500D02*
D03*
Y320500D02*
D03*
X231240D02*
D03*
Y330500D02*
D03*
Y340500D02*
D03*
Y350500D02*
D03*
Y360500D02*
D03*
Y370500D02*
D03*
Y380500D02*
D03*
Y390500D02*
D03*
Y400500D02*
D03*
Y410500D02*
D03*
Y420500D02*
D03*
X261800Y287233D02*
D03*
Y277233D02*
D03*
Y267233D02*
D03*
Y257233D02*
D03*
Y247233D02*
D03*
Y237233D02*
D03*
Y227233D02*
D03*
Y217233D02*
D03*
Y207233D02*
D03*
Y197233D02*
D03*
Y187233D02*
D03*
Y177233D02*
D03*
X230540D02*
D03*
Y187233D02*
D03*
Y197233D02*
D03*
Y207233D02*
D03*
Y217233D02*
D03*
Y227233D02*
D03*
Y237233D02*
D03*
Y247233D02*
D03*
Y257233D02*
D03*
Y267233D02*
D03*
Y277233D02*
D03*
X175130Y436000D02*
D03*
Y426000D02*
D03*
Y416000D02*
D03*
Y406000D02*
D03*
Y396000D02*
D03*
Y386000D02*
D03*
Y376000D02*
D03*
Y366000D02*
D03*
Y356000D02*
D03*
Y346000D02*
D03*
Y336000D02*
D03*
Y326000D02*
D03*
X143870D02*
D03*
Y336000D02*
D03*
Y346000D02*
D03*
Y356000D02*
D03*
Y366000D02*
D03*
Y376000D02*
D03*
Y386000D02*
D03*
Y396000D02*
D03*
Y406000D02*
D03*
Y416000D02*
D03*
Y426000D02*
D03*
D16*
X112583Y415179D02*
D03*
X122583D02*
D03*
X112583Y405179D02*
D03*
X122583D02*
D03*
X112583Y395179D02*
D03*
X122583D02*
D03*
X112583Y385179D02*
D03*
X122583D02*
D03*
X112583Y375179D02*
D03*
X122583D02*
D03*
X112583Y365179D02*
D03*
X122583D02*
D03*
X112583Y355179D02*
D03*
X122583D02*
D03*
X112583Y345179D02*
D03*
X122583D02*
D03*
X112583Y335179D02*
D03*
X122583D02*
D03*
X112583Y325179D02*
D03*
X122583D02*
D03*
X112583Y315179D02*
D03*
X122583D02*
D03*
X112583Y305179D02*
D03*
X122583D02*
D03*
X112583Y295179D02*
D03*
X122583D02*
D03*
X112583Y285179D02*
D03*
X122583D02*
D03*
X112583Y275179D02*
D03*
D17*
X122583D02*
D03*
D18*
X474500Y225000D02*
D03*
X400000Y221500D02*
D03*
X282000Y220500D02*
D03*
X208500Y226500D02*
D03*
D19*
X474500Y235000D02*
D03*
Y245000D02*
D03*
Y255000D02*
D03*
Y265000D02*
D03*
Y275000D02*
D03*
Y285000D02*
D03*
Y295000D02*
D03*
Y305000D02*
D03*
Y315000D02*
D03*
Y325000D02*
D03*
Y335000D02*
D03*
Y345000D02*
D03*
Y355000D02*
D03*
Y365000D02*
D03*
Y375000D02*
D03*
X400000Y231500D02*
D03*
Y241500D02*
D03*
Y251500D02*
D03*
Y261500D02*
D03*
Y271500D02*
D03*
Y281500D02*
D03*
Y291500D02*
D03*
Y301500D02*
D03*
Y311500D02*
D03*
Y321500D02*
D03*
Y331500D02*
D03*
Y341500D02*
D03*
Y351500D02*
D03*
Y361500D02*
D03*
Y371500D02*
D03*
X282000Y370500D02*
D03*
Y360500D02*
D03*
Y350500D02*
D03*
Y340500D02*
D03*
Y330500D02*
D03*
Y320500D02*
D03*
Y310500D02*
D03*
Y300500D02*
D03*
Y290500D02*
D03*
Y280500D02*
D03*
Y270500D02*
D03*
Y260500D02*
D03*
Y250500D02*
D03*
Y240500D02*
D03*
Y230500D02*
D03*
X208500Y376500D02*
D03*
Y366500D02*
D03*
Y356500D02*
D03*
Y346500D02*
D03*
Y336500D02*
D03*
Y326500D02*
D03*
Y316500D02*
D03*
Y306500D02*
D03*
Y296500D02*
D03*
Y286500D02*
D03*
Y276500D02*
D03*
Y266500D02*
D03*
Y256500D02*
D03*
Y246500D02*
D03*
Y236500D02*
D03*
D20*
X120500Y171000D02*
D03*
X118432Y443035D02*
D03*
X476500Y170000D02*
D03*
X473000Y441000D02*
D03*
D21*
X290000Y355500D02*
D03*
X224500Y242500D02*
D03*
X246000Y257000D02*
D03*
Y187500D02*
D03*
X318600Y225500D02*
D03*
X350870Y297330D02*
D03*
M02*
